<?xml version="1.0" encoding="utf-8"?>
<!-- Generator: Adobe Illustrator 26.0.1, SVG Export Plug-In . SVG Version: 6.00 Build 0)  -->
<svg version="1.1" id="Layer_2" xmlns="http://www.w3.org/2000/svg" xmlns:xlink="http://www.w3.org/1999/xlink" x="0px"
     y="0px"
     viewBox="0 0 841.89 595.28" style="enable-background:new 0 0 841.89 595.28;" xml:space="preserve">
<style type="text/css">
	.st0{fill:none;stroke:#000000;stroke-width:5;stroke-linecap:round;stroke-linejoin:round;stroke-miterlimit:10;}
</style>
    <circle cx="810.04" cy="334.57" r="2.77"/>
    <path class="st0" d="M463.02,302.15c2.13-5.19,4.77-7.06,6.72-7.57"/>
    <path class="st0" d="M484.21,326.49c5.36,9.02,10.3,8.43,30.72,8.6c20.43,0.17,282.89,0.17,282.89,0.17"/>
    <path class="st0" d="M457.91,311.94c-14.04,25.28-22.09,37.15,25.53,0.77l-11.87,23.62c0,0,18.51-15.83,29.62-23.11"/>
    <path class="st0" d="M344.3,329.3c13.91-2.55,21.06-11.23,17.36-14.94c-3.7-3.7-21.19,6.38-19.53,15.96s14.17,6.82,32.21-9.19
	c17.7-15.7,54.64-50.72,75.23-82.55c0,0-66.21,91.57-59.57,96s36.26-22.64,36.26-22.64s-13.96,21.11-9.36,22.47
	c4.6,1.36,25.02-18.38,28.43-22.47"/>
    <line class="st0" x1="331.69" y1="322.21" x2="261.57" y2="429.13"/>
    <path class="st0" d="M284.98,312.62l-17.02,23.22c0,0,30.98-25.78,33.53-23.22s-17.19,21.26-13.45,23.22
	c3.74,1.97,39.15-29.18,44.94-22.03c5.79,7.15-18.04,26.21-22.64,20.94c-4.6-5.28,7.12-16.84,15.8-21.09"/>
    <line class="st0" x1="25.91" y1="285.89" x2="271.28" y2="285.89"/>
    <polyline class="st0" points="127.79,421.98 372.64,155.68 251.36,336.32 "/>
</svg>